PathFileType	4	(X/Y/Z)	s09c0101.trc
DataRate	CameraRate	NumFrames	NumMarkers	Units	OrigDataRate	OrigDataStartFrame	OrigNumFrames
200	200	4	50	mm	200	1750	2000
Frame#	Time	racr			lacr			c7			jug			rlel			rdr			llel			ldr			s2			lic			ric			lasi			rasi			rpsi			lpsi			rgt			lgt			rth1			rth2			rth3			rth4			rlfc			rmfc			rsh1			rsh2			rsh3			rsh4			rlmal			rmmal			rcal			rtoe			rmt5			lth1			lth2			lth4			lth3			llfc			lmfc			llmal			lmmal			lcal			lmt5			lsh1			lsh2			lsh3			lsh4			ltoe			SBIKE			LBIKE			RBIKE			
		X1	Y1	Z1	X2	Y2	Z2	X3	Y3	Z3	X4	Y4	Z4	X5	Y5	Z5	X6	Y6	Z6	X7	Y7	Z7	X8	Y8	Z8	X9	Y9	Z9	X10	Y10	Z10	X11	Y11	Z11	X12	Y12	Z12	X13	Y13	Z13	X14	Y14	Z14	X15	Y15	Z15	X16	Y16	Z16	X17	Y17	Z17	X18	Y18	Z18	X19	Y19	Z19	X20	Y20	Z20	X21	Y21	Z21	X22	Y22	Z22	X23	Y23	Z23	X24	Y24	Z24	X25	Y25	Z25	X26	Y26	Z26	X27	Y27	Z27	X28	Y28	Z28	X29	Y29	Z29	X30	Y30	Z30	X31	Y31	Z31	X32	Y32	Z32	X33	Y33	Z33	X34	Y34	Z34	X35	Y35	Z35	X36	Y36	Z36	X37	Y37	Z37	X38	Y38	Z38	X39	Y39	Z39	X40	Y40	Z40	X41	Y41	Z41	X42	Y42	Z42	X43	Y43	Z43	X44	Y44	Z44	X45	Y45	Z45	X46	Y46	Z46	X47	Y47	Z47	X48	Y48	Z48	X49	Y49	Z49	X50	Y50	Z50	
1750	8.7500	542.656437	1281.080526	-151.208973	521.729126	1262.381774	-439.953509	504.715359	1299.325809	-290.882945	484.127116	1156.900159	-284.978102	504.110732	1054.436507	-19.982154	686.334121	884.185632	-59.111464	499.834338	1012.095146	-561.768354	688.385408	875.752218	-463.604164	16.613189	1121.934983	-203.159575	124.409132	1126.956741	-380.207263	180.630186	1116.198325	-82.190212	174.189456	1074.458846	-361.262970	219.968267	1066.383685	-112.890550	58.821078	1151.023476	-155.041181	31.712789	1161.169094	-258.666602	156.436051	964.833881	-47.405962	104.580043	1014.211066	-417.978020	233.567471	849.462582	-58.910210	292.174577	786.423229	-74.144224	306.444717	699.010733	-84.971578	316.560145	799.612593	-98.403967	337.133407	611.186766	-118.309059	308.246932	586.255931	-210.859671	303.672681	516.144448	-78.647822	317.185494	427.844487	-91.002668	286.332275	346.003512	-86.425351	339.812264	428.154455	-124.620111	267.993589	244.314717	-82.121838	266.222170	253.751709	-157.872098	191.230624	215.924293	-115.800367	452.557506	173.951819	-130.396906	371.482034	166.800341	-62.317914	236.784502	959.447047	-425.589516	322.150021	956.875871	-423.872968	334.223850	989.195385	-407.773189	399.038661	909.611883	-430.239706	474.116714	847.466373	-416.996504	491.728422	827.777597	-316.262278	206.993289	601.895358	-411.327019	229.542694	597.935195	-341.427157	132.505561	614.968128	-371.831767	234.745236	474.399333	-430.774818	407.184778	779.886624	-434.991826	359.782868	707.431004	-422.911389	280.243535	668.113283	-419.117338	380.784063	689.068200	-395.997695	314.465617	428.744664	-360.653136	-65.275592	852.801240	-240.564736	21.174645	83.793439	-442.086203	21.112631	83.889246	-43.999545	
1751	8.7550	544.040429	1280.271594	-151.748295	522.015886	1262.504127	-440.548452	505.625139	1299.089484	-291.249863	484.808190	1156.672216	-285.857578	505.251357	1054.616924	-19.492113	686.942819	883.848782	-59.048129	499.387616	1011.613427	-561.414292	688.430357	875.841548	-463.340591	17.594329	1122.372574	-202.007520	124.557475	1127.826515	-379.273773	182.150161	1115.766299	-81.831326	174.595782	1075.505672	-360.919190	221.096032	1066.082687	-112.938490	60.468395	1151.096704	-155.355567	30.846121	1162.528590	-257.130799	157.992926	964.345322	-46.501105	105.097004	1015.723979	-417.591715	232.761241	848.681331	-58.111393	290.460220	784.724704	-73.211421	303.189059	697.055919	-83.824226	314.758276	797.449141	-97.973799	332.313133	608.693234	-117.265004	303.271299	584.220026	-210.284249	297.922886	514.152284	-78.021562	311.072751	425.728117	-90.314517	279.754934	344.134568	-85.942048	333.114888	425.744197	-124.010623	260.881946	242.733550	-82.070863	259.342719	251.847123	-157.603025	184.119636	216.004142	-115.953755	443.835027	167.199913	-130.134952	362.477132	162.450807	-62.133979	237.704857	963.956801	-424.304530	323.180087	962.911291	-422.880020	334.717023	995.328014	-406.667201	400.788613	917.001347	-429.748597	477.053701	856.534432	-416.532897	495.528206	836.558077	-316.004618	214.312967	605.761921	-411.856360	237.223231	602.978716	-342.193899	139.266110	617.630670	-372.197900	244.374060	479.046196	-431.152636	411.945615	787.984738	-434.699997	365.609889	714.742879	-423.072409	286.706258	674.325286	-419.441549	387.022587	696.431975	-396.394437	324.791596	435.007062	-360.756815	-65.238053	852.859089	-240.509361	21.176028	83.792396	-442.092914	21.093644	83.914627	-44.023580	
1752	8.7600	545.529822	1279.404784	-152.049873	522.671993	1262.822688	-440.877434	506.739309	1298.841322	-291.369684	485.666857	1156.437629	-286.517554	506.444328	1054.738456	-18.779775	687.840428	883.060084	-58.956930	499.160904	1011.373805	-560.983085	688.476273	875.947236	-462.953422	18.358750	1123.052284	-200.828281	124.746055	1128.965840	-378.514909	183.606522	1115.442527	-81.544888	174.808918	1076.330021	-360.546273	222.087485	1065.725483	-113.197491	61.624955	1151.441001	-154.342790	31.936658	1163.422092	-256.296917	159.450371	964.141209	-45.492929	105.839654	1017.667330	-417.688511	232.014369	848.404346	-57.285759	288.751550	783.535863	-72.319337	300.109103	695.606569	-82.661198	313.034524	795.840797	-97.393298	327.888637	606.660083	-116.101884	298.515069	582.579593	-209.634446	292.553344	512.720893	-77.342426	305.163082	424.336699	-89.638403	273.178238	342.796599	-85.520399	327.270904	424.114867	-123.286977	253.613727	242.068784	-81.987250	252.200874	250.736340	-157.390265	176.596329	216.877976	-116.126352	434.880530	161.422113	-129.881083	353.249891	158.475840	-62.106918	238.567227	968.477686	-423.407750	324.062826	968.662002	-421.753880	335.087725	1001.133166	-405.296653	402.363446	924.079227	-429.103612	479.639225	864.680438	-416.681601	498.609835	845.237596	-315.413653	221.564613	609.083405	-412.188584	244.133749	606.475487	-342.682502	145.997716	619.433803	-372.550179	254.159078	483.114229	-431.332331	416.138448	795.678849	-434.106084	371.471266	721.526305	-423.574507	293.147547	679.452316	-419.003188	392.725989	703.859879	-395.725372	335.362102	440.841117	-360.936533	-65.202285	852.917727	-240.518091	21.178330	83.802795	-442.089026	21.109778	83.905597	-44.014549	
1753	8.7650	547.045700	1278.423817	-152.115919	523.428538	1263.171154	-440.776649	507.946475	1298.597140	-291.267583	486.471412	1156.228792	-287.057978	507.779800	1054.758738	-17.848700	688.228957	882.743199	-58.706283	499.001168	1011.295434	-560.369571	688.505717	876.009807	-462.456474	19.146303	1124.067692	-200.384519	125.144649	1130.417257	-378.022924	184.986542	1115.253530	-81.315295	174.867767	1077.261012	-360.197229	223.175743	1065.609484	-113.213477	62.721453	1152.026570	-153.544682	32.672574	1164.270414	-255.408816	160.731330	964.254832	-44.583242	106.420687	1019.627761	-417.758899	231.092583	848.373913	-56.689788	287.028166	782.713541	-71.394945	297.228286	694.585242	-81.568214	311.411378	794.650242	-96.688277	323.912643	605.273713	-115.158227	294.198415	581.702378	-209.305244	287.186154	511.626818	-77.214289	299.500452	423.280340	-89.020051	266.607900	342.143613	-85.168090	321.678104	422.904894	-122.586185	246.135277	241.852536	-81.880222	248.325051	249.218046	-156.905256	169.067542	218.378931	-116.313774	424.834327	155.206664	-130.723616	343.817492	155.279686	-61.977224	239.377856	972.949992	-422.816167	324.795451	974.230032	-420.628635	335.341486	1006.710394	-403.812067	403.682567	930.566963	-428.394767	483.457218	872.907115	-415.517546	501.852461	853.453801	-314.635866	228.740593	611.719087	-412.464716	251.191056	609.811665	-343.084144	152.642207	620.398399	-372.797796	263.964990	486.603714	-431.586692	420.072674	802.997102	-433.453103	376.454710	727.736481	-423.404792	299.132819	684.306320	-419.003306	397.988325	709.877230	-395.317369	346.106197	446.236786	-360.947717	-65.183522	852.948184	-240.548436	21.179483	83.835769	-442.092661	21.104268	83.919570	-44.024280	
